<svg width="53" height="53" viewBox="0 0 53 53" fill="none" xmlns="http://www.w3.org/2000/svg">
<path d="M41.5486 51.5902H11.5486C6.02574 51.5902 1.54858 47.1131 1.54858 41.5902V11.5902C1.54858 6.06736 6.02574 1.59021 11.5486 1.59021H41.5486C47.0714 1.59021 51.5486 6.06736 51.5486 11.5902V25.1362V41.5902C51.5486 47.1131 47.0714 51.5902 41.5486 51.5902Z" stroke="#577883" stroke-width="2.5" stroke-linecap="round" stroke-linejoin="round"/>
<path d="M36.952 43.7842C35.76 43.8526 34.5725 43.5875 33.5229 43.0185C32.4732 42.4496 31.6029 41.5993 31.0097 40.5631C30.4165 39.527 30.1238 38.346 30.1646 37.1527C30.2053 35.9595 30.5778 34.8012 31.2404 33.8079L35.705 27.1628C35.8424 26.9584 36.0281 26.7908 36.2455 26.675C36.463 26.5591 36.7056 26.4985 36.952 26.4985C37.1984 26.4985 37.441 26.5591 37.6585 26.675C37.8759 26.7908 38.0616 26.9584 38.199 27.1628L42.5822 33.6783C43.3067 34.7513 43.7094 36.009 43.7428 37.3033C43.6987 39.0623 42.9593 40.732 41.6864 41.9468C40.4136 43.1616 38.7111 43.8223 36.952 43.7842ZM36.952 29.7335L33.327 35.1253C32.9004 35.7454 32.6592 36.4741 32.6318 37.2263C32.6044 37.9784 32.7919 38.7228 33.1722 39.3722C33.5526 40.0217 34.1101 40.5493 34.7795 40.8934C35.4489 41.2374 36.2025 41.3836 36.952 41.3148C38.0562 41.3529 39.1306 40.9523 39.9403 40.2006C40.7501 39.4489 41.2294 38.4073 41.2734 37.3033C41.2444 36.4755 40.9741 35.6742 40.4956 34.9981L36.952 29.7335ZM20.2838 26.4986V20.3252H21.5185C22.8278 20.3235 24.083 19.8027 25.0089 18.8768C25.9347 17.951 26.4556 16.6958 26.4572 15.3864V11.6824H22.7532C21.4889 11.6847 20.2741 12.1742 19.3615 13.0492C18.7224 11.888 17.7835 10.9196 16.6428 10.2449C15.502 9.57011 14.2011 9.21378 12.8757 9.21301H9.17163V12.9171C9.17392 14.8811 9.95515 16.7641 11.3439 18.1529C12.7327 19.5416 14.6157 20.3229 16.5797 20.3252H17.8144V26.4986H9.17163V28.968H26.4572V26.4986H20.2838ZM22.7532 14.1517H23.9878V15.3864C23.9878 16.0413 23.7277 16.6694 23.2646 17.1325C22.8015 17.5956 22.1734 17.8558 21.5185 17.8558H20.2838V16.6211C20.2838 15.9662 20.5439 15.3381 21.007 14.875C21.4701 14.4119 22.0982 14.1517 22.7532 14.1517ZM16.5797 17.8558C15.2704 17.8542 14.0152 17.3333 13.0893 16.4075C12.1635 15.4816 11.6426 14.2264 11.641 12.9171V11.6824H12.8757C14.185 11.684 15.4403 12.2049 16.3661 13.1307C17.2919 14.0565 17.8128 15.3118 17.8144 16.6211V17.8558H16.5797ZM9.17163 32.672H26.4572V35.1414H9.17163V32.672ZM9.17163 38.8454H26.4572V41.3148H9.17163V38.8454Z" fill="black"/>
</svg>
