<svg width="54" height="53" viewBox="0 0 54 53" fill="none" xmlns="http://www.w3.org/2000/svg">
<path d="M46.5571 24.671V47.2169H9.05713V39.7016L46.5571 24.671ZM45.9571 9.79072L36.9196 3.27747L38.4946 10.2416L19.5196 17.7569C19.0977 16.9882 18.5664 16.3381 17.9563 15.844C17.3461 15.3498 16.6691 15.0212 15.9638 14.8769C15.2585 14.7327 14.5388 14.7756 13.846 15.0033C13.1531 15.2309 12.5006 15.6389 11.9259 16.2038C11.3505 16.7675 10.864 17.4773 10.4941 18.2925C10.1242 19.1076 9.87823 20.0123 9.77026 20.9546C9.66229 21.8969 9.69443 22.8584 9.86484 23.7841C10.0352 24.7098 10.3406 25.5815 10.7634 26.3494C12.5259 29.606 15.9384 30.2824 18.3571 27.9026C19.6884 26.625 20.4946 24.5958 20.5696 22.3914L39.5446 14.8761L41.1196 21.8402L45.9571 9.79072Z" fill="black"/>
<path d="M42 51.3738H12C6.47715 51.3738 2 46.8966 2 41.3738V11.3738C2 5.85093 6.47715 1.37378 12 1.37378H42C47.5228 1.37378 52 5.85093 52 11.3738V24.9197V41.3738C52 46.8966 47.5228 51.3738 42 51.3738Z" stroke="#577883" stroke-width="2.5" stroke-linecap="round" stroke-linejoin="round"/>
</svg>
