<svg width="53" height="53" viewBox="0 0 53 53" fill="none" xmlns="http://www.w3.org/2000/svg">
<path d="M41.3323 51.3738H11.3323C5.80943 51.3738 1.33228 46.8966 1.33228 41.3738V11.3738C1.33228 5.85093 5.80943 1.37378 11.3323 1.37378H41.3323C46.8551 1.37378 51.3323 5.85093 51.3323 11.3738V24.9197V41.3738C51.3323 46.8966 46.8551 51.3738 41.3323 51.3738Z" stroke="#577883" stroke-width="2.5" stroke-linecap="round" stroke-linejoin="round"/>
<g clip-path="url(#clip0_31_10)">
<path d="M30.2953 13.0475C30.7948 13.0475 31.2807 13.2095 31.6803 13.5092C30.8567 13.9081 30.1701 14.5428 29.708 15.3327C29.2458 16.1225 29.0288 17.032 29.0845 17.9454C29.1403 18.8589 29.4662 19.7352 30.021 20.463C30.5758 21.1908 31.3344 21.7373 32.2004 22.0331L32.7821 22.2331C33.0044 22.309 33.2063 22.4346 33.3725 22.6005C33.5387 22.7665 33.6647 22.9682 33.7409 23.1903L33.9394 23.772C34.1857 24.4935 34.6068 25.1427 35.1651 25.6618C35.7234 26.1808 36.4016 26.5535 37.1391 26.7466C37.8766 26.9397 38.6504 26.9472 39.3915 26.7684C40.1325 26.5895 40.8178 26.23 41.386 25.7218V37.6696C41.386 38.4859 41.0618 39.2688 40.4846 39.8459C39.9074 40.4231 39.1245 40.7474 38.3083 40.7474H13.6862C12.8699 40.7474 12.087 40.4231 11.5099 39.8459C10.9327 39.2688 10.6084 38.4859 10.6084 37.6696V19.2031C10.6084 18.3868 10.9327 17.604 11.5099 17.0268C12.087 16.4496 12.8699 16.1253 13.6862 16.1253H17.6657L20.0664 13.7247C20.2807 13.5101 20.5352 13.3398 20.8154 13.2236C21.0955 13.1074 21.3958 13.0476 21.6991 13.0475H30.2953ZM25.9972 19.9725C23.9565 19.9725 21.9994 20.7832 20.5564 22.2262C19.1135 23.6691 18.3028 25.6262 18.3028 27.6669C18.3028 29.7076 19.1135 31.6647 20.5564 33.1077C21.9994 34.5507 23.9565 35.3613 25.9972 35.3613C28.0379 35.3613 29.995 34.5507 31.438 33.1077C32.881 31.6647 33.6916 29.7076 33.6916 27.6669C33.6916 25.6262 32.881 23.6691 31.438 22.2262C29.995 20.7832 28.0379 19.9725 25.9972 19.9725ZM25.9972 23.0503C26.6035 23.0503 27.2038 23.1697 27.7639 23.4017C28.324 23.6337 28.833 23.9738 29.2617 24.4025C29.6904 24.8312 30.0304 25.3401 30.2624 25.9002C30.4944 26.4603 30.6139 27.0607 30.6139 27.6669C30.6139 28.2732 30.4944 28.8735 30.2624 29.4336C30.0304 29.9937 29.6904 30.5027 29.2617 30.9314C28.833 31.3601 28.324 31.7001 27.7639 31.9321C27.2038 32.1641 26.6035 32.2836 25.9972 32.2836C24.7728 32.2836 23.5985 31.7972 22.7327 30.9314C21.867 30.0656 21.3806 28.8913 21.3806 27.6669C21.3806 26.4425 21.867 25.2682 22.7327 24.4025C23.5985 23.5367 24.7728 23.0503 25.9972 23.0503ZM38.3083 11.5087C38.5962 11.5087 38.8783 11.5894 39.1226 11.7418C39.3668 11.8941 39.5635 12.1119 39.6902 12.3704L39.764 12.5505L39.9641 13.1322C40.1752 13.7511 40.5154 14.3181 40.9622 14.7956C41.409 15.2732 41.9521 15.6503 42.5556 15.9022L42.8403 16.0099L43.422 16.2084C43.71 16.3067 43.9625 16.4882 44.1474 16.7299C44.3323 16.9717 44.4414 17.2628 44.4608 17.5666C44.4803 17.8703 44.4092 18.173 44.2566 18.4364C44.104 18.6997 43.8767 18.9119 43.6035 19.0461L43.422 19.12L42.8403 19.32C42.2213 19.5312 41.6544 19.8714 41.1768 20.3181C40.6993 20.7649 40.3221 21.308 40.0703 21.9115L39.9626 22.1962L39.764 22.7779C39.6656 23.0659 39.484 23.3182 39.2421 23.503C39.0003 23.6877 38.7091 23.7966 38.4053 23.8159C38.1016 23.8352 37.799 23.7639 37.5357 23.6112C37.2725 23.4585 37.0604 23.2312 36.9263 22.9579L36.8525 22.7779L36.6524 22.1962C36.4413 21.5773 36.1011 21.0103 35.6543 20.5328C35.2076 20.0552 34.6644 19.678 34.0609 19.4262L33.7763 19.3185L33.1946 19.12C32.9065 19.0217 32.654 18.8402 32.4691 18.5985C32.2842 18.3567 32.1751 18.0655 32.1557 17.7618C32.1363 17.458 32.2073 17.1554 32.3599 16.892C32.5125 16.6287 32.7398 16.4165 33.013 16.2823L33.1946 16.2084L33.7763 16.0084C34.3952 15.7972 34.9622 15.457 35.4397 15.0102C35.9172 14.5635 36.2944 14.0204 36.5462 13.4169L36.654 13.1322L36.8525 12.5505C36.9562 12.2467 37.1522 11.9829 37.4133 11.7961C37.6743 11.6093 37.9873 11.5088 38.3083 11.5087Z" fill="black"/>
</g>
<defs>
<clipPath id="clip0_31_10">
<rect width="36.9331" height="36.9331" fill="white" transform="translate(7.53052 8.43091)"/>
</clipPath>
</defs>
</svg>
