<svg width="35" height="35" viewBox="0 0 35 35" fill="none" xmlns="http://www.w3.org/2000/svg">
<path d="M16.7876 34.1079L16.7683 34.1111L16.6441 34.1673L16.6091 34.1737L16.5846 34.1673L16.4603 34.1111C16.4416 34.1058 16.4276 34.1084 16.4183 34.1191L16.4113 34.1352L16.3816 34.8219L16.3903 34.854L16.4078 34.8749L16.5898 34.9936L16.6161 35L16.6371 34.9936L16.8191 34.8749L16.8401 34.8492L16.8471 34.8219L16.8173 34.1368C16.8126 34.1197 16.8027 34.1101 16.7876 34.1079ZM17.2513 33.9266L17.2286 33.9298L16.9048 34.079L16.8873 34.0951L16.8821 34.1127L16.9136 34.8027L16.9223 34.8219L16.9363 34.8331L17.2881 34.9824C17.3102 34.9877 17.3271 34.9834 17.3388 34.9695L17.3458 34.9471L17.2863 33.9619C17.2805 33.9427 17.2688 33.9309 17.2513 33.9266ZM16.0001 33.9298C15.9923 33.9255 15.9831 33.9241 15.9743 33.9259C15.9655 33.9277 15.9578 33.9326 15.9528 33.9394L15.9423 33.9619L15.8828 34.9471C15.884 34.9663 15.8939 34.9791 15.9126 34.9856L15.9388 34.9824L16.2906 34.8331L16.3081 34.8203L16.3151 34.8027L16.3448 34.1127L16.3396 34.0935L16.3221 34.0774L16.0001 33.9298Z" fill="#0F8B78"/>
<path d="M22.75 19.2537C25.0706 19.2537 27.2962 20.099 28.9372 21.6035C30.5781 23.1079 31.5 25.1485 31.5 27.2761V28.8806C31.5 29.7317 31.1313 30.5479 30.4749 31.1497C29.8185 31.7515 28.9283 32.0896 28 32.0896H3.5C2.57174 32.0896 1.6815 31.7515 1.02513 31.1497C0.368749 30.5479 0 29.7317 0 28.8806V27.2761C0 25.1485 0.921872 23.1079 2.56282 21.6035C4.20376 20.099 6.42936 19.2537 8.75 19.2537H22.75ZM29.75 9.62687C30.2141 9.62687 30.6592 9.79592 30.9874 10.0968C31.3156 10.3977 31.5 10.8058 31.5 11.2314V12.8358H33.25C33.7141 12.8358 34.1592 13.0049 34.4874 13.3058C34.8156 13.6067 35 14.0148 35 14.4403C35 14.8658 34.8156 15.2739 34.4874 15.5748C34.1592 15.8757 33.7141 16.0448 33.25 16.0448H31.5V17.6493C31.5 18.0748 31.3156 18.4829 30.9874 18.7838C30.6592 19.0847 30.2141 19.2537 29.75 19.2537C29.2859 19.2537 28.8408 19.0847 28.5126 18.7838C28.1844 18.4829 28 18.0748 28 17.6493V16.0448H26.25C25.7859 16.0448 25.3408 15.8757 25.0126 15.5748C24.6844 15.2739 24.5 14.8658 24.5 14.4403C24.5 14.0148 24.6844 13.6067 25.0126 13.3058C25.3408 13.0049 25.7859 12.8358 26.25 12.8358H28V11.2314C28 10.8058 28.1844 10.3977 28.5126 10.0968C28.8408 9.79592 29.2859 9.62687 29.75 9.62687ZM15.75 0C18.0706 0 20.2962 0.845214 21.9372 2.3497C23.5781 3.8542 24.5 5.89472 24.5 8.02239C24.5 10.1501 23.5781 12.1906 21.9372 13.6951C20.2962 15.1996 18.0706 16.0448 15.75 16.0448C13.4294 16.0448 11.2038 15.1996 9.56282 13.6951C7.92187 12.1906 7 10.1501 7 8.02239C7 5.89472 7.92187 3.8542 9.56282 2.3497C11.2038 0.845214 13.4294 0 15.75 0Z" fill="#0F8B78"/>
</svg>
