<svg width="35" height="35" viewBox="0 0 35 35" fill="none" xmlns="http://www.w3.org/2000/svg">
<path d="M30.625 17.5V6.5625C30.625 5.98234 30.3945 5.42594 29.9843 5.0157C29.5741 4.60547 29.0177 4.375 28.4375 4.375H6.5625C5.98234 4.375 5.42594 4.60547 5.0157 5.0157C4.60547 5.42594 4.375 5.98234 4.375 6.5625V28.4375C4.375 29.0177 4.60547 29.5741 5.0157 29.9843C5.42594 30.3945 5.98234 30.625 6.5625 30.625H17.5" stroke="#0F8B78" stroke-width="2.91667" stroke-linecap="round" stroke-linejoin="round"/>
<path d="M23.3333 27.7084C25.7495 27.7084 27.7083 25.7496 27.7083 23.3334C27.7083 20.9171 25.7495 18.9584 23.3333 18.9584C20.917 18.9584 18.9583 20.9171 18.9583 23.3334C18.9583 25.7496 20.917 27.7084 23.3333 27.7084Z" stroke="#0F8B78" stroke-width="2.91667"/>
<path d="M26.9791 26.25L30.6249 29.1666M10.2083 11.6666H24.7916M10.2083 17.5H16.0416" stroke="#0F8B78" stroke-width="2.91667" stroke-linecap="round" stroke-linejoin="round"/>
</svg>
